<svg xmlns="http://www.w3.org/2000/svg" xmlns:xlink="http://www.w3.org/1999/xlink" preserveAspectRatio="xMidYMid" width="19" height="19" viewBox="0 0 19 19">
  <defs>
    <style>
      .cls-1 {
        fill: #dadee2;
      }

      .cls-1, .cls-2 {
        fill-rule: evenodd;
      }

      .cls-2 {
        fill: #142558;
      }
    </style>
  </defs>
  <g id="artboard-1">
    <path d="M9.500,18.999 C4.261,18.999 -0.000,14.737 -0.000,9.499 C-0.000,4.261 4.261,-0.001 9.500,-0.001 C14.738,-0.001 19.000,4.261 19.000,9.499 C19.000,14.737 14.738,18.999 9.500,18.999 ZM9.500,1.999 C5.364,1.999 2.000,5.364 2.000,9.499 C2.000,13.635 5.364,16.999 9.500,16.999 C13.636,16.999 17.000,13.635 17.000,9.499 C17.000,5.364 13.636,1.999 9.500,1.999 Z" class="cls-1"/>
    <path d="M13.014,9.445 L9.784,6.446 L9.306,6.002 L8.708,6.446 L7.990,7.223 L10.383,9.445 L7.990,11.776 L8.708,12.443 L9.306,12.998 L9.784,12.443 L13.014,9.445 Z" class="cls-2"/>
  </g>
</svg>
