<svg xmlns="http://www.w3.org/2000/svg" xmlns:xlink="http://www.w3.org/1999/xlink" preserveAspectRatio="xMidYMid" width="19" height="19" viewBox="0 0 19 19">
  <defs>
    <style>
      .cls-1 {
        fill: #dadee2;
      }

      .cls-1, .cls-2 {
        fill-rule: evenodd;
      }

      .cls-2 {
        fill: #142558;
      }
    </style>
  </defs>
  <g id="artboard-1">
    <path d="M9.500,19.000 C4.262,19.000 -0.000,14.738 -0.000,9.500 C-0.000,4.262 4.262,-0.000 9.500,-0.000 C14.738,-0.000 19.000,4.262 19.000,9.500 C19.000,14.738 14.738,19.000 9.500,19.000 ZM9.500,2.000 C5.364,2.000 2.000,5.364 2.000,9.500 C2.000,13.636 5.364,17.000 9.500,17.000 C13.636,17.000 17.000,13.636 17.000,9.500 C17.000,5.364 13.636,2.000 9.500,2.000 Z" class="cls-1"/>
    <path d="M13.015,9.445 L9.784,6.447 L9.306,6.002 L8.708,6.447 L7.990,7.224 L10.383,9.445 L7.990,11.777 L8.708,12.444 L9.306,12.999 L9.784,12.444 L13.015,9.445 Z" class="cls-2"/>
  </g>
</svg>
