<svg xmlns="http://www.w3.org/2000/svg" xmlns:xlink="http://www.w3.org/1999/xlink" preserveAspectRatio="xMidYMid" width="18.09" height="17" viewBox="0 0 18.09 17">
  <defs>
    <style>
      .cls-1 {
        fill: #a1a8bd;
        fill-rule: evenodd;
      }
    </style>
  </defs>
  <path d="M18.000,4.052 L17.000,7.040 C16.630,7.878 16.105,9.032 15.000,9.032 L5.360,9.032 L5.478,10.028 L18.000,10.028 L17.000,12.019 L4.352,12.019 L3.708,12.094 L2.522,2.061 L0.999,2.061 C0.447,2.061 -0.000,1.615 -0.000,1.066 C-0.000,0.515 0.352,0.008 0.904,0.008 L4.291,-0.006 L4.545,2.144 C4.670,2.095 4.812,2.061 5.000,2.061 L17.000,2.061 C18.105,2.061 18.000,2.952 18.000,4.052 ZM6.000,13.015 C7.105,13.015 8.000,13.906 8.000,15.007 C8.000,16.106 7.105,16.998 6.000,16.998 C4.895,16.998 4.000,16.106 4.000,15.007 C4.000,13.906 4.895,13.015 6.000,13.015 ZM14.000,13.015 C15.105,13.015 16.000,13.906 16.000,15.007 C16.000,16.106 15.105,16.998 14.000,16.998 C12.895,16.998 12.000,16.106 12.000,15.007 C12.000,13.906 12.895,13.015 14.000,13.015 Z" class="cls-1"/>
</svg>
