<svg xmlns="http://www.w3.org/2000/svg" preserveAspectRatio="xMidYMid" width="14" height="14" viewBox="0 0 14 14"><defs><style>  
      .cls-1 {
        fill: #a1a8bd;
        fill-rule: evenodd;
      }
    </style></defs><path d="M8.4 7L13.7 1.6C14.1 1.3 14.1 0.7 13.7 0.3 13.3-0.1 12.7-0.1 12.3 0.3L7 5.6 1.6 0.3C1.3-0.1 0.7-0.1 0.3 0.3 -0.1 0.7-0.1 1.3 0.3 1.6L5.6 7 0.3 12.3C-0.1 12.7-0.1 13.3 0.3 13.7 0.7 14.1 1.3 14.1 1.6 13.7L7 8.4 12.3 13.7C12.7 14.1 13.3 14.1 13.7 13.7 14.1 13.3 14.1 12.7 13.7 12.3L8.4 7Z" class="cls-1"/></svg>