<svg xmlns="http://www.w3.org/2000/svg" xmlns:xlink="http://www.w3.org/1999/xlink" preserveAspectRatio="xMidYMid" width="14" height="14" viewBox="0 0 14 14">
  <defs>
    <style>
      .cls-1 {
        fill: #a1a8bd;
        fill-rule: evenodd;
      }
    </style>
  </defs>
  <path d="M8.360,6.993 L13.713,1.642 C14.088,1.266 14.088,0.653 13.713,0.276 C13.336,-0.101 12.721,-0.101 12.346,0.276 L6.993,5.627 L1.642,0.276 C1.265,-0.101 0.653,-0.101 0.276,0.276 C-0.101,0.653 -0.101,1.266 0.276,1.642 L5.627,6.993 L0.276,12.346 C-0.101,12.721 -0.101,13.336 0.276,13.713 C0.653,14.088 1.266,14.088 1.642,13.713 L6.993,8.360 L12.346,13.713 C12.721,14.088 13.336,14.088 13.713,13.713 C14.088,13.336 14.088,12.721 13.713,12.346 L8.360,6.993 Z" class="cls-1"/>
</svg>
