<svg xmlns="http://www.w3.org/2000/svg" xmlns:xlink="http://www.w3.org/1999/xlink" preserveAspectRatio="xMidYMid" width="37" height="37" viewBox="0 0 37 37">
  <defs>
    <style>
      .cls-1 {
        fill: #e3e8f0;
      }

      .cls-2 {
        fill: #7e869f;
        opacity: 0.76;
        fill-rule: evenodd;
      }
    </style>
  </defs>
  <g id="artboard-1">
    <circle cx="18.5" cy="18.5" r="18.5" class="cls-1"/>
    <path d="M28.000,25.000 L26.000,25.000 C26.000,23.344 24.656,22.000 23.000,22.000 C22.660,22.000 22.339,22.069 22.035,22.173 C22.024,22.115 22.000,22.061 22.000,22.000 L22.000,15.000 C22.000,14.448 22.448,14.000 23.000,14.000 L25.000,14.000 C27.206,14.000 29.000,15.794 29.000,18.000 L29.000,24.000 C29.000,24.552 28.552,25.000 28.000,25.000 ZM27.000,17.000 L24.000,17.000 L24.000,19.000 L27.000,19.000 L27.000,17.000 ZM25.000,25.000 C25.000,26.104 24.104,27.000 23.000,27.000 C21.895,27.000 21.000,26.104 21.000,25.000 C21.000,23.896 21.895,23.000 23.000,23.000 C24.104,23.000 25.000,23.896 25.000,25.000 ZM17.000,25.000 C17.000,23.344 15.656,22.000 14.000,22.000 C12.344,22.000 11.000,23.344 11.000,25.000 L10.000,25.000 C9.448,25.000 9.000,24.552 9.000,24.000 L9.000,13.000 C9.000,11.896 9.897,11.000 11.000,11.000 L19.000,11.000 C20.103,11.000 21.000,11.896 21.000,13.000 L21.000,22.779 C20.390,23.328 20.000,24.115 20.000,25.000 L17.000,25.000 ZM14.000,23.000 C15.104,23.000 16.000,23.896 16.000,25.000 C16.000,26.104 15.104,27.000 14.000,27.000 C12.895,27.000 12.000,26.104 12.000,25.000 C12.000,23.896 12.895,23.000 14.000,23.000 Z" class="cls-2"/>
  </g>
</svg>
