
<svg xmlns="http://www.w3.org/2000/svg" preserveAspectRatio="xMidYMid" width="12" height="11" viewBox="0 0 12 11"><defs><style> .cls-1 { fill: #3a405b; fill-rule: evenodd; } </style></defs><path d="M5.7 5.9L1.8 9.7C1.4 10.1 0.7 10.1 0.3 9.7 -0.1 9.3-0.1 8.6 0.3 8.2L3.5 5 0.3 1.9C-0.1 1.4-0.1 0.8 0.3 0.3 0.7-0.1 1.4-0.1 1.8 0.3L5.7 4.2C5.9 4.4 6 4.7 6 5 6 5.3 5.9 5.6 5.7 5.9Z" class="cls-1"/><path d="M11.7 5.9L7.8 9.7C7.4 10.1 6.7 10.1 6.3 9.7 5.9 9.3 5.9 8.6 6.3 8.2L9.5 5 6.3 1.9C5.9 1.4 5.9 0.8 6.3 0.3 6.7-0.1 7.4-0.1 7.8 0.3L11.7 4.2C11.9 4.4 12 4.7 12 5 12 5.3 11.9 5.6 11.7 5.9Z" class="cls-1"/></svg>