<svg xmlns="http://www.w3.org/2000/svg" preserveAspectRatio="xMidYMid" width="14" height="11" viewBox="0 0 14 11"><defs><style> .cls-1 { fill: #3a405b; fill-rule: evenodd; } </style></defs><path d="M9.5 5L12.7 8.2C13.1 8.6 13.1 9.3 12.7 9.7 12.3 10.1 11.6 10.1 11.2 9.7L7.3 5.9C7.1 5.6 7 5.3 7 5 7 4.7 7.1 4.4 7.3 4.2L11.2 0.3C11.6-0.1 12.3-0.1 12.7 0.3 13.1 0.8 13.1 1.4 12.7 1.9L9.5 5Z" class="cls-1"/><path d="M2.5 5L5.7 8.2C6.1 8.6 6.1 9.3 5.7 9.7 5.3 10.1 4.6 10.1 4.2 9.7L0.3 5.9C0.1 5.6 0 5.3 0 5 0 4.7 0.1 4.4 0.3 4.2L4.2 0.3C4.6-0.1 5.3-0.1 5.7 0.3 6.1 0.8 6.1 1.4 5.7 1.9L2.5 5Z" class="cls-1"/></svg>