<svg xmlns="http://www.w3.org/2000/svg" xmlns:xlink="http://www.w3.org/1999/xlink" preserveAspectRatio="xMidYMid" width="13" height="13" viewBox="0 0 13 13">
  <defs>
    <style>
      .cls-1 {
        fill: #343e5c;
        fill-rule: evenodd;
      }
    </style>
  </defs>
  <path d="M12.614,12.610 C12.113,13.110 11.301,13.110 10.801,12.610 L8.158,9.966 C6.087,11.222 3.359,10.971 1.571,9.182 C-0.532,7.079 -0.532,3.670 1.571,1.568 C3.673,-0.536 7.082,-0.536 9.185,1.568 C10.973,3.357 11.225,6.084 9.971,8.154 L12.614,10.799 C13.114,11.297 13.114,12.108 12.614,12.610 ZM7.735,3.017 C6.433,1.716 4.323,1.716 3.021,3.017 C1.720,4.319 1.720,6.430 3.021,7.731 C4.323,9.034 6.433,9.034 7.735,7.731 C9.036,6.430 9.036,4.319 7.735,3.017 Z" class="cls-1"/>
</svg>
